<?xml version="1.0" standalone="no"?>
<!DOCTYPE svg PUBLIC "-//W3C//DTD SVG 20010904//EN"
 "http://www.w3.org/TR/2001/REC-SVG-20010904/DTD/svg10.dtd">
<svg version="1.0" xmlns="http://www.w3.org/2000/svg"
 width="400.000000pt" height="400.000000pt" viewBox="0 0 400.000000 400.000000"
 preserveAspectRatio="xMidYMid meet">
<metadata>
Created by potrace 1.14, written by Peter Selinger 2001-2017
</metadata>
<g transform="translate(0.000000,400.000000) scale(0.100000,-0.100000)"
fill="#000000" stroke="none">
<path d="M920 3843 c0 -8 -14 -13 -40 -14 -62 -2 -85 -12 -74 -31 4 -7 2 -8
-5 -4 -9 6 -9 11 0 22 7 9 8 14 1 14 -6 0 -13 -8 -16 -18 -6 -18 -22 -21 -101
-23 -16 0 -17 -2 -5 -9 19 -12 11 -19 -28 -22 -17 -1 -29 -4 -27 -7 8 -8 -17
-31 -27 -25 -5 3 -12 -3 -15 -15 -4 -16 -13 -21 -39 -21 -33 0 -46 -14 -21
-23 6 -2 -2 -7 -20 -11 -21 -5 -30 -12 -27 -21 4 -10 0 -13 -16 -10 -16 3 -20
0 -16 -10 3 -10 0 -12 -11 -8 -11 4 -14 2 -9 -5 6 -11 -12 -17 -37 -13 -5 1
-6 -3 -2 -8 3 -6 13 -8 23 -4 11 3 9 -1 -6 -11 -12 -10 -27 -14 -33 -10 -8 4
-8 0 0 -15 9 -17 9 -20 -2 -15 -15 5 -31 -22 -22 -36 3 -5 -4 -7 -15 -5 -14 3
-20 -1 -20 -16 0 -12 -7 -19 -20 -19 -11 0 -20 -5 -20 -11 0 -5 6 -7 13 -3 8
5 7 2 -2 -10 -8 -9 -20 -15 -28 -12 -8 3 -13 0 -12 -7 4 -33 -2 -57 -15 -57
-8 0 -18 -4 -21 -10 -3 -5 0 -7 8 -4 8 3 18 0 23 -7 4 -7 3 -10 -4 -5 -14 9
-25 -10 -26 -48 -1 -22 -6 -30 -17 -28 -11 1 -16 -7 -16 -25 -1 -16 -3 -41 -4
-56 -3 -26 -4 -27 -18 -10 -13 17 -13 17 -8 0 4 -9 2 -28 -3 -42 -6 -16 -6
-26 1 -31 6 -3 6 -10 1 -17 -5 -7 -8 -27 -6 -44 2 -19 -1 -33 -7 -33 -5 0 -7
5 -4 10 3 6 1 10 -5 10 -7 0 -10 -6 -7 -12 2 -7 0 -21 -5 -32 -7 -12 -7 -16 1
-12 5 4 15 -2 20 -13 15 -27 14 -31 -7 -31 -11 0 -18 -7 -18 -20 0 -25 13 -26
19 -2 4 13 5 11 6 -5 0 -13 -5 -23 -11 -23 -9 0 -9 -3 1 -9 20 -13 23 -41 4
-34 -12 5 -12 7 -1 14 7 5 8 9 2 9 -22 0 -24 -14 -4 -35 16 -17 17 -22 6 -22
-8 0 -12 5 -9 10 4 6 1 7 -7 2 -10 -6 -10 -10 2 -19 14 -11 14 -41 -1 -32 -4
3 -7 -8 -7 -24 0 -16 3 -27 7 -24 5 2 5 12 2 22 -5 13 -3 14 6 6 10 -9 10 -17
2 -33 -7 -12 -8 -21 -2 -21 5 0 12 6 14 13 3 6 3 -1 2 -18 -2 -16 -4 -33 -4
-37 -1 -5 -6 -8 -12 -8 -8 0 -8 4 0 14 9 10 8 15 -2 19 -20 8 -14 -33 6 -45
18 -10 14 -28 -6 -28 -7 0 -6 4 3 10 8 5 10 10 4 10 -21 0 -22 -12 -3 -43 21
-36 24 -47 9 -47 -5 0 -9 3 -7 8 1 4 -2 9 -8 12 -5 3 -10 -9 -10 -27 0 -17 3
-29 8 -26 5 3 6 12 3 20 -3 8 -2 11 3 8 6 -3 9 -13 9 -23 0 -9 3 -25 7 -34 4
-11 3 -18 -4 -18 -6 0 -10 3 -8 8 1 4 -3 8 -8 9 -17 4 -11 -61 7 -80 21 -20
13 -48 -10 -40 -11 3 -9 -2 6 -14 13 -10 20 -22 16 -26 -4 -4 -12 -2 -19 3 -8
7 -12 5 -12 -5 0 -8 4 -12 9 -9 13 8 10 -10 -4 -25 -9 -9 -9 -12 -1 -7 6 3 13
3 16 -1 2 -5 2 -3 1 4 -2 7 1 15 5 17 5 3 8 -5 7 -17 -1 -16 -7 -21 -20 -19
-19 4 -19 4 2 -47 3 -8 1 -12 -5 -8 -18 11 -7 -33 12 -47 14 -10 15 -15 5 -21
-10 -6 -9 -9 1 -16 10 -6 10 -9 2 -9 -19 0 -27 21 -12 32 12 8 11 9 -1 5 -8
-2 -16 -13 -16 -25 -1 -12 2 -19 7 -16 4 2 13 -4 18 -15 14 -25 14 -31 0 -31
-5 0 -8 4 -4 9 3 5 1 12 -4 15 -5 4 -12 2 -15 -3 -4 -5 -2 -12 4 -16 6 -4 8
-10 6 -14 -3 -4 -7 -19 -10 -34 -3 -20 -1 -24 11 -20 9 4 11 8 4 12 -8 5 -7
12 2 25 11 16 13 14 11 -11 -1 -15 -3 -30 -4 -33 -1 -3 -1 -9 0 -15 6 -29 6
-55 0 -55 -15 0 -19 14 -7 29 10 14 10 14 -4 3 -14 -10 -16 -26 -10 -65 0 -5
6 -5 12 -1 8 4 7 9 -2 15 -7 4 -11 11 -8 14 4 3 11 -1 18 -9 9 -11 8 -17 -4
-30 -9 -9 -12 -16 -6 -16 6 0 11 -7 11 -16 0 -13 -3 -14 -13 -5 -10 8 -14 7
-14 -4 0 -8 4 -12 9 -9 4 3 8 1 8 -5 0 -5 -4 -12 -9 -16 -10 -5 -8 -27 5 -67
3 -12 2 -18 -3 -15 -18 11 -7 -33 12 -47 14 -10 15 -15 5 -21 -10 -6 -9 -9 1
-16 10 -6 10 -9 2 -9 -19 0 -27 21 -12 32 12 8 11 9 -1 5 -8 -2 -16 -13 -16
-25 -1 -12 2 -19 7 -16 4 2 13 -4 18 -15 14 -25 14 -31 1 -31 -6 0 -9 3 -8 8
2 4 -1 7 -7 7 -5 0 -10 -12 -10 -27 -1 -26 0 -27 19 -10 15 12 17 12 9 2 -8
-10 -9 -21 -3 -30 13 -20 12 -30 0 -30 -6 0 -9 3 -8 8 2 4 -1 8 -7 9 -17 4
-11 -61 7 -80 10 -9 15 -24 12 -32 -6 -16 -24 -11 -24 6 0 6 5 7 12 3 7 -5 8
-3 4 5 -11 16 -21 5 -21 -24 -1 -14 4 -21 11 -18 16 6 27 -14 13 -23 -8 -5 -9
-3 -4 7 8 12 6 12 -8 0 -18 -15 -23 -26 -7 -16 6 3 10 2 10 -4 0 -5 -4 -12 -9
-16 -6 -3 -9 -14 -8 -25 1 -10 5 -17 9 -14 4 3 4 12 1 22 -5 13 -3 15 7 5 11
-10 10 -17 -3 -37 -11 -16 -13 -27 -7 -31 6 -4 7 -12 3 -18 -12 -20 -14 -47
-2 -47 5 0 7 5 4 10 -3 5 -1 10 4 10 6 0 11 -7 11 -15 0 -8 -5 -15 -10 -15 -7
0 -6 -8 2 -22 15 -29 19 -48 8 -48 -15 0 -21 18 -8 23 9 4 10 6 1 6 -16 1 -26
-16 -13 -24 7 -4 6 -13 -1 -27 -7 -13 -7 -18 -1 -14 16 10 24 -11 27 -74 2
-32 6 -63 9 -68 3 -6 0 -13 -6 -15 -10 -4 -10 -6 0 -6 7 -1 10 -6 6 -13 -5 -7
-2 -9 7 -6 10 4 15 -1 16 -14 2 -17 0 -18 -15 -6 -13 10 -13 7 2 -9 10 -13 19
-38 20 -57 0 -19 5 -38 10 -43 5 -4 6 -3 2 4 -3 6 -3 14 2 17 4 2 9 -3 10 -12
1 -9 4 -26 6 -37 2 -11 5 -26 5 -34 1 -7 7 -11 15 -8 10 4 14 0 11 -13 -2 -11
1 -22 6 -25 5 -4 7 -11 4 -16 -4 -5 1 -12 9 -15 9 -3 16 -15 16 -25 0 -17 11
-24 33 -20 5 1 6 -3 2 -9 -3 -5 1 -22 9 -37 9 -17 16 -22 17 -13 0 8 4 4 8
-10 4 -14 13 -24 19 -23 7 2 12 -2 12 -7 0 -6 10 -10 23 -11 21 0 21 -1 2 -9
-17 -7 -17 -9 -2 -9 9 -1 17 -8 17 -16 0 -8 3 -14 7 -14 24 4 35 -3 29 -17 -4
-11 1 -18 14 -21 11 -3 20 -12 20 -19 0 -8 10 -14 23 -14 12 0 29 -5 37 -11
12 -8 9 -9 -9 -4 -21 6 -22 5 -10 -8 8 -8 16 -15 19 -15 26 1 40 -4 40 -17 0
-8 8 -15 18 -16 48 -2 85 -8 90 -15 4 -4 -3 -4 -15 -1 -13 3 -23 1 -23 -4 0
-9 7 -11 65 -13 19 0 35 -4 35 -8 0 -4 6 -5 14 -2 8 3 17 1 21 -5 3 -6 0 -9
-8 -5 -8 3 -18 0 -22 -6 -3 -6 -3 -10 2 -9 32 6 123 -3 123 -12 0 -5 -4 -8 -9
-4 -5 3 -12 1 -16 -4 -3 -6 3 -8 15 -6 11 2 20 -1 20 -6 0 -6 4 -8 10 -4 5 3
6 13 3 23 -5 14 -3 13 13 -3 20 -21 54 -30 54 -14 0 5 10 5 23 1 27 -10 88 -9
105 1 6 5 12 4 12 0 0 -5 9 -9 20 -10 11 -1 18 2 15 8 -4 5 3 6 17 1 29 -10
419 -9 436 2 6 4 12 3 12 -1 0 -12 38 -14 45 -2 4 5 12 6 18 2 17 -11 756 -10
750 1 -4 5 -1 6 6 2 16 -10 122 -16 116 -7 -2 4 2 8 10 8 8 0 15 -3 15 -6 0
-3 13 -6 30 -7 17 -1 27 3 23 9 -3 6 -1 7 6 3 20 -13 122 -15 114 -3 -3 6 -1
7 6 3 18 -11 122 -15 115 -5 -3 5 5 5 18 0 29 -11 39 -11 60 0 10 6 19 5 23
-1 3 -5 11 -10 16 -10 6 0 7 4 4 10 -4 6 2 7 17 2 27 -10 90 -8 108 3 7 4 16
2 21 -6 5 -8 9 -9 9 -3 0 6 11 10 26 8 19 -2 23 1 15 10 -9 11 8 16 77 19 7 0
11 6 8 14 -3 7 -2 12 2 12 4 -1 9 0 12 1 3 1 19 3 35 5 45 3 76 15 69 26 -3 6
0 10 7 8 40 -5 59 2 59 22 0 11 5 17 10 14 6 -3 10 0 10 7 0 9 3 9 10 -2 8
-12 10 -11 10 8 0 12 5 22 11 22 5 0 7 -6 4 -12 -4 -7 0 -4 9 6 8 10 13 23 9
29 -3 6 -1 7 5 3 6 -4 21 3 33 15 16 16 21 18 16 6 -3 -9 -2 -17 3 -17 6 0 10
9 10 21 0 15 5 19 15 15 10 -4 15 1 15 14 0 11 7 20 15 20 8 0 18 14 23 33 7
26 13 32 35 31 14 0 24 3 21 7 -2 4 0 10 6 14 5 3 10 16 10 28 0 12 5 29 11
37 8 11 9 9 4 -10 -6 -19 -4 -22 4 -14 7 6 13 27 14 46 2 27 6 34 19 30 13 -3
15 1 11 17 -4 16 -1 21 14 21 16 0 20 8 22 38 1 20 3 43 3 50 1 6 5 12 10 12
5 0 6 -10 3 -22 -6 -17 -4 -20 4 -12 7 6 13 34 13 62 2 35 6 52 15 52 15 0 17
16 3 25 -7 4 -6 14 2 28 7 13 13 65 13 128 1 58 4 110 8 115 3 5 2 16 -3 24
-4 7 -5 23 0 34 4 12 4 30 0 41 -4 11 -4 32 1 47 4 14 6 28 4 30 -8 8 -12 68
-4 68 4 0 6 6 3 13 -8 22 -10 97 -2 97 3 0 3 13 -2 29 -6 21 -5 31 3 35 7 2 8
5 2 5 -11 1 -11 123 0 140 3 6 2 11 -2 11 -12 0 -10 73 2 82 7 5 7 8 0 8 -11
0 -13 69 -2 86 3 6 4 14 0 18 -9 8 -10 66 -1 66 4 0 3 13 -2 30 -5 18 -5 32 1
36 5 3 7 10 3 15 -8 14 -8 114 0 128 4 6 3 11 -1 11 -12 0 -10 73 2 82 7 5 7
8 0 8 -8 0 -12 73 -5 90 1 3 1 10 0 15 -6 28 -5 65 1 65 4 0 4 13 -1 29 -6 21
-5 31 3 35 7 2 8 5 2 5 -11 1 -11 123 0 140 3 6 3 11 -2 11 -4 0 -8 22 -8 50
0 27 4 50 8 50 5 0 5 5 2 11 -9 14 -12 159 -3 159 4 0 3 12 0 28 -4 15 -7 41
-6 57 1 17 -5 36 -15 44 -13 11 -13 13 -1 9 12 -4 15 3 15 32 0 26 -4 36 -12
33 -14 -5 -15 0 -17 72 -1 36 -5 45 -18 45 -13 0 -18 9 -20 33 0 17 -1 39 -2
47 -1 8 -8 15 -16 15 -8 0 -14 9 -13 18 0 12 -4 16 -12 13 -14 -5 -29 20 -19
35 3 5 1 9 -5 9 -6 0 -7 7 -4 17 4 10 2 14 -4 10 -13 -8 -63 30 -63 48 0 8 -6
18 -13 22 -8 4 -17 16 -20 26 -4 10 -11 16 -16 13 -5 -3 -12 1 -15 10 -4 10
-2 13 7 8 8 -5 8 -2 -2 9 -7 9 -17 15 -21 12 -5 -3 -12 0 -16 6 -4 7 -3 9 4 5
6 -3 13 -2 17 4 5 8 -13 12 -42 9 -4 0 -10 9 -15 20 -4 12 -13 21 -19 21 -7 0
-8 -5 -3 -13 5 -7 2 -6 -6 3 -9 9 -21 15 -27 13 -6 -2 -15 1 -19 8 -5 8 -3 9
6 4 9 -5 11 -4 6 3 -4 7 -16 12 -27 12 -10 0 -19 6 -19 13 0 7 -9 18 -20 25
-12 7 -19 16 -16 20 2 4 -10 8 -27 10 -68 5 -76 6 -71 14 3 5 9 6 14 3 5 -3
11 -2 14 3 3 5 0 9 -7 10 -7 0 -29 2 -49 3 -33 2 -41 8 -40 29 0 3 -29 6 -65
7 -42 2 -70 8 -80 18 -16 16 -39 15 -36 -2 1 -5 -9 -9 -22 -9 -13 0 -21 4 -19
8 3 5 10 6 15 3 5 -4 9 -2 9 3 0 6 -391 10 -1020 10 -946 1 -1020 0 -1031 -16
-10 -16 -10 -16 -5 0 4 15 -1 18 -34 16 -26 -1 -40 -6 -40 -15z m60 -1 c0 -5
-7 -9 -15 -9 -8 0 -15 4 -15 9 0 4 7 8 15 8 8 0 15 -4 15 -8z m190 2 c0 -8
-19 -13 -24 -6 -3 5 1 9 9 9 8 0 15 -2 15 -3z m595 -12 c-3 -3 -11 0 -18 7 -9
10 -8 11 6 5 10 -3 15 -9 12 -12z m1330 8 c3 -5 1 -10 -4 -10 -6 0 -11 5 -11
10 0 6 2 10 4 10 3 0 8 -4 11 -10z m-2445 -100 c0 -5 -5 -10 -11 -10 -5 0 -7
5 -4 10 3 6 8 10 11 10 2 0 4 -4 4 -10z m2760 -4 c0 -3 -4 -8 -10 -11 -5 -3
-10 -1 -10 4 0 6 5 11 10 11 6 0 10 -2 10 -4z m-1380 -431 c9 -5 11 -4 6 3 -4
7 -3 12 2 12 5 0 12 -9 15 -20 3 -14 14 -20 32 -20 17 0 37 -12 56 -32 22 -24
28 -27 24 -13 -7 20 -6 20 12 0 10 -11 29 -21 42 -22 14 -1 29 -9 33 -18 5 -8
17 -15 27 -15 10 0 26 -9 36 -20 10 -12 25 -18 32 -16 8 3 13 -2 13 -14 0 -16
7 -20 31 -20 23 0 32 -5 36 -20 3 -12 12 -19 22 -18 10 2 15 -3 15 -14 -1 -10
2 -18 7 -18 5 0 9 6 9 13 0 7 5 5 10 -5 6 -10 18 -14 30 -11 17 4 19 2 13 -13
-6 -17 -5 -17 10 -5 10 8 20 11 24 7 3 -3 1 -6 -6 -6 -7 0 -10 -4 -7 -8 3 -5
19 -7 35 -6 17 1 28 -2 25 -7 -3 -5 -11 -6 -17 -2 -7 4 -6 0 2 -10 7 -9 26
-17 42 -17 18 0 28 -5 27 -12 -2 -7 7 -14 20 -16 12 -2 22 -8 22 -13 0 -5 5
-9 11 -9 5 0 7 5 3 12 -4 7 -3 8 5 4 6 -4 9 -12 6 -17 -6 -8 8 -13 28 -10 4 0
7 -9 8 -22 0 -12 3 -16 6 -9 3 9 10 7 24 -9 10 -12 16 -26 12 -32 -3 -6 -1 -7
5 -3 6 4 8 14 5 23 -4 11 -2 14 8 11 8 -3 12 -12 10 -19 -2 -8 -3 -22 -3 -31
0 -9 -7 -17 -16 -17 -38 -1 -51 -5 -46 -12 2 -5 12 -5 21 -2 11 4 14 3 9 -5
-4 -7 -20 -12 -37 -12 -31 0 -36 -8 -16 -29 9 -10 7 -10 -12 0 -19 11 -25 11
-28 2 -3 -7 -16 -13 -30 -13 -19 0 -24 -4 -19 -16 4 -11 2 -15 -8 -11 -17 7
-39 -16 -28 -28 4 -5 2 -5 -5 -1 -6 3 -14 2 -18 -4 -4 -6 -10 -8 -15 -5 -5 3
-18 -3 -30 -15 -11 -11 -25 -20 -31 -20 -5 0 -7 -6 -3 -12 6 -10 5 -10 -8 0
-12 10 -18 9 -28 -3 -11 -13 -10 -15 6 -9 15 5 16 4 5 -4 -8 -6 -27 -9 -41 -7
-15 2 -33 -1 -41 -6 -10 -7 -6 -8 14 -5 16 3 25 1 22 -5 -4 -5 -11 -7 -16 -4
-5 4 -9 2 -9 -3 0 -5 -11 -7 -25 -4 -14 2 -22 8 -19 13 5 9 -16 13 -43 10 -7
-1 -13 7 -13 19 0 11 -7 20 -16 20 -9 0 -13 -5 -9 -12 4 -7 -5 0 -18 16 -14
16 -34 29 -46 30 -12 0 -21 6 -22 11 -1 14 -40 34 -56 28 -7 -3 -13 0 -13 5 0
6 -12 23 -26 37 -24 24 -25 24 -19 4 5 -14 4 -19 -4 -15 -6 4 -11 13 -11 21 0
16 -30 29 -31 12 0 -7 -2 -8 -5 -1 -2 6 -21 9 -42 7 -20 -2 -49 -4 -64 -6 -14
-1 -25 -4 -23 -7 2 -3 -3 -14 -11 -25 -8 -10 -14 -13 -14 -6 0 7 -5 9 -11 6
-6 -4 -8 -13 -6 -19 3 -7 0 -13 -6 -14 -52 -7 -62 -11 -59 -22 3 -11 0 -11
-13 0 -13 11 -15 10 -9 -3 4 -12 1 -15 -15 -12 -14 3 -18 -1 -14 -11 4 -10 0
-12 -13 -7 -12 4 -15 3 -10 -5 5 -8 0 -12 -13 -12 -11 0 -23 -4 -26 -10 -3 -5
0 -10 7 -10 9 0 9 -3 -2 -10 -11 -7 -17 -5 -22 8 -6 15 -7 15 -7 -2 -1 -13 -6
-17 -21 -13 -15 4 -20 0 -20 -14 0 -10 -5 -19 -11 -19 -5 0 -7 5 -4 10 3 6 1
10 -4 10 -6 0 -11 -4 -11 -9 0 -14 -43 -21 -57 -9 -18 15 -16 3 3 -16 14 -15
13 -16 -15 -16 -17 0 -31 -5 -31 -11 0 -5 5 -7 12 -3 7 4 8 3 4 -5 -4 -6 -12
-9 -17 -6 -5 4 -9 2 -9 -4 0 -6 -7 -8 -15 -5 -11 5 -15 -1 -15 -21 0 -14 4
-24 9 -20 5 3 13 0 17 -6 4 -7 3 -9 -4 -5 -6 3 -13 2 -17 -4 -3 -6 5 -11 19
-11 47 -3 51 -4 48 -22 -2 -12 4 -17 23 -17 14 0 25 -6 25 -12 0 -9 4 -8 10 2
8 12 10 11 10 -6 0 -18 5 -21 30 -18 27 3 34 -3 32 -27 -1 -3 9 -5 21 -5 16 1
21 -4 19 -16 -2 -10 2 -18 8 -18 5 0 10 5 10 11 0 5 5 7 10 4 6 -4 8 -10 5
-15 -3 -5 3 -7 14 -5 13 2 18 -1 15 -10 -3 -7 -1 -16 5 -20 6 -3 11 -1 11 6 0
8 4 8 15 -1 8 -7 12 -17 8 -24 -3 -6 -3 -8 2 -4 4 4 13 4 19 -1 6 -6 24 -11
38 -13 15 -2 31 -8 35 -13 4 -4 2 -5 -4 -1 -7 4 -13 2 -13 -3 0 -6 10 -11 21
-11 12 0 27 -7 33 -16 16 -21 76 -30 87 -12 6 8 9 9 9 1 0 -16 31 -10 45 10 7
9 25 17 41 17 27 0 27 1 8 16 -10 8 -14 13 -7 9 17 -8 64 5 57 16 -3 5 -11 6
-17 3 -7 -4 -8 -3 -4 1 4 5 14 10 22 12 22 4 49 11 55 13 3 1 9 2 13 1 5 -1 6
3 2 9 -3 6 -10 8 -15 5 -5 -3 -11 -1 -14 4 -3 4 2 8 12 8 51 0 61 3 55 18 -3
9 -2 15 3 14 24 -4 45 2 38 12 -4 7 2 6 17 -2 21 -11 22 -10 12 3 -15 17 -7
29 13 21 8 -3 14 0 14 7 0 8 8 10 21 7 15 -4 19 -2 15 9 -4 10 3 14 27 15 18
1 36 1 41 0 5 -1 3 6 -5 15 -8 10 -9 15 -2 11 6 -4 14 -3 17 2 3 4 20 11 38
15 26 5 30 9 18 16 -12 8 -12 10 5 11 11 1 23 1 28 0 4 0 7 7 7 17 0 14 8 18
33 18 25 -1 31 3 29 17 -2 12 4 17 24 17 20 0 25 4 20 16 -4 11 -2 15 8 11 8
-3 17 -3 21 1 6 7 10 8 36 11 5 0 7 5 4 11 -7 12 40 24 56 14 8 -4 9 -3 5 4
-4 7 -1 12 6 12 10 0 9 3 -2 11 -13 9 -13 10 0 6 8 -2 33 6 56 19 22 13 44 21
48 16 4 -4 6 2 4 13 -2 12 3 20 12 21 8 0 23 2 33 2 9 1 17 10 18 20 0 14 2
14 9 -3 8 -19 9 -19 9 3 1 14 5 20 12 17 5 -4 8 -12 6 -18 -2 -7 3 -21 12 -32
12 -15 12 -17 1 -8 -13 10 -15 1 -15 -70 0 -45 5 -88 9 -96 6 -10 5 -12 -2 -7
-7 4 -12 1 -12 -9 0 -9 5 -13 10 -10 6 3 10 1 10 -4 0 -6 -4 -11 -10 -11 -5 0
-10 -4 -10 -10 0 -5 8 -7 18 -3 16 5 16 5 0 -8 -17 -14 -19 -41 -5 -55 4 -4 7
-12 7 -18 0 -6 -5 -4 -10 4 -8 12 -10 12 -10 1 0 -8 8 -20 18 -27 16 -13 16
-14 0 -8 -10 3 -18 1 -18 -5 0 -6 6 -11 13 -12 10 0 10 -2 0 -6 -20 -7 -15
-23 5 -17 16 5 16 4 -1 -9 -12 -10 -14 -17 -8 -22 6 -3 11 -12 11 -18 0 -9 -2
-9 -8 0 -4 6 -7 -66 -6 -160 0 -132 3 -171 13 -169 7 1 10 -2 6 -8 -3 -6 -11
-8 -16 -5 -5 4 -9 1 -9 -4 0 -6 6 -11 13 -11 7 0 8 -3 2 -8 -13 -9 -15 -133
-2 -125 6 4 7 1 1 -8 -4 -7 -8 -86 -9 -175 0 -127 2 -161 12 -157 7 3 13 0 13
-7 0 -6 -4 -9 -9 -5 -5 3 -13 0 -17 -6 -3 -6 0 -15 7 -20 10 -6 11 -9 2 -9 -7
0 -13 -5 -13 -11 0 -5 4 -8 9 -4 5 3 13 1 16 -5 4 -6 1 -9 -6 -8 -8 2 -13 -12
-13 -42 -1 -25 -5 -51 -9 -57 -5 -8 -4 -13 3 -13 6 0 9 -4 6 -9 -3 -5 -16 -7
-28 -3 -16 4 -19 2 -13 -9 7 -12 6 -12 -7 -1 -13 10 -17 10 -22 -3 -4 -11 -2
-14 6 -9 7 5 8 3 3 -5 -4 -7 -17 -10 -29 -7 -11 3 -28 1 -36 -5 -11 -8 -9 -9
10 -4 19 6 22 4 14 -4 -6 -7 -24 -14 -40 -17 -27 -5 -47 -22 -39 -34 2 -3 -11
-5 -28 -5 -24 0 -32 -4 -31 -18 1 -13 -6 -17 -30 -18 -17 -1 -35 -1 -39 0 -5
1 -6 -3 -2 -8 3 -6 13 -8 23 -5 14 5 14 4 2 -4 -8 -5 -32 -13 -53 -16 -28 -5
-37 -11 -33 -21 4 -10 -2 -15 -17 -15 -40 0 -56 -3 -51 -11 2 -4 13 -6 24 -4
11 2 20 0 20 -5 0 -5 -10 -9 -22 -8 -46 2 -68 -2 -68 -13 0 -5 6 -7 13 -4 6 4
3 0 -7 -9 -10 -8 -23 -13 -27 -10 -8 5 -13 -10 -10 -28 0 -5 -15 -8 -34 -8
-29 0 -35 -4 -36 -22 -1 -17 -2 -19 -6 -5 -2 9 -9 17 -14 17 -6 0 -8 -4 -5 -8
2 -4 1 -14 -5 -22 -6 -10 -9 -11 -9 -2 0 6 -8 12 -17 12 -9 0 -13 -3 -10 -7
10 -9 -25 -32 -50 -33 -16 0 -21 -4 -17 -15 5 -11 -1 -15 -22 -16 -16 -1 -32
-1 -36 0 -5 0 -8 -7 -8 -18 0 -14 -7 -18 -32 -17 -19 0 -31 -4 -28 -9 3 -6 9
-9 13 -7 5 1 6 -2 2 -8 -3 -5 -20 -10 -37 -10 -23 0 -29 -4 -24 -15 5 -15 -5
-19 -33 -15 -9 1 -12 -4 -8 -14 4 -11 0 -16 -13 -17 -22 -2 -28 -3 -50 -12
-24 -9 -140 9 -138 22 3 26 -3 33 -17 21 -12 -10 -15 -10 -15 0 0 7 -7 10 -14
7 -10 -4 -13 -1 -9 9 4 10 -2 14 -21 14 -19 0 -26 5 -26 19 0 11 -7 18 -17 18
-43 0 -49 3 -33 13 12 7 8 11 -17 16 -18 4 -33 12 -33 20 0 7 -14 14 -32 16
-21 2 -32 8 -30 16 1 8 -2 11 -8 7 -5 -3 -10 0 -10 7 0 9 -3 9 -10 -2 -7 -11
-10 -11 -10 -2 0 7 -4 11 -9 8 -4 -3 -21 5 -36 18 -15 13 -34 22 -42 19 -8 -3
-13 2 -13 15 0 15 -5 20 -18 17 -10 -2 -25 1 -33 6 -10 6 -10 9 -1 9 6 0 12 5
12 10 0 6 -6 10 -12 9 -38 -5 -60 2 -54 16 4 11 -2 15 -21 15 -14 0 -23 3 -20
7 10 10 -25 32 -53 33 -14 0 -32 5 -40 11 -13 9 -12 10 3 5 9 -3 17 -1 17 4 0
8 -54 15 -82 11 -4 0 -5 5 -2 13 7 18 -16 32 -26 16 -5 -8 -9 -8 -13 4 -4 10
-13 14 -24 10 -10 -3 -7 2 7 10 l25 15 -25 1 c-49 0 -61 3 -56 17 3 8 -2 13
-14 13 -11 0 -20 6 -20 14 0 8 -5 18 -12 22 -7 4 -8 3 -4 -4 4 -7 2 -12 -3
-12 -6 0 -11 5 -11 10 0 6 -9 10 -20 10 -11 0 -19 3 -19 8 4 21 -3 31 -16 25
-20 -7 -16 17 5 34 12 10 11 11 -10 7 -14 -2 -20 -2 -13 2 7 3 9 12 6 21 -4
10 -2 14 5 9 6 -3 14 -2 17 4 4 6 3 10 -2 9 -20 -4 -29 2 -29 21 0 11 4 20 9
20 4 0 5 5 2 10 -3 6 0 10 7 11 10 0 10 2 1 6 -7 2 -13 14 -13 24 0 11 4 18 9
14 5 -3 13 0 17 6 4 8 3 9 -4 5 -16 -10 -34 28 -20 42 7 7 8 12 3 12 -6 0 -3
5 5 10 11 7 11 10 2 10 -7 0 -10 5 -7 10 4 6 11 7 17 4 7 -4 8 -2 4 5 -4 6
-11 9 -16 6 -5 -3 -11 -1 -15 5 -3 5 -2 10 4 10 7 0 7 8 1 25 -6 15 -6 25 0
25 5 0 6 12 3 27 -9 49 -9 93 1 96 5 2 4 12 -2 24 -9 16 -9 23 2 32 7 6 17 7
21 3 5 -4 5 -1 1 6 -4 7 -11 10 -16 7 -5 -3 -11 -1 -15 5 -3 5 -2 10 4 10 5 0
7 10 5 23 -6 25 -6 32 -2 65 1 12 7 22 12 22 5 0 1 6 -9 14 -17 12 -16 14 19
18 20 2 40 0 42 -4 3 -5 9 -6 14 -3 5 3 11 1 15 -4 3 -6 -4 -8 -16 -6 -14 3
-19 1 -13 -5 5 -5 24 -10 43 -12 19 -2 37 -9 39 -17 3 -9 0 -11 -9 -6 -8 5
-11 4 -6 -1 10 -10 13 -11 70 -13 41 -2 42 -2 17 -15 l-25 -14 25 -1 c59 -2
85 -8 85 -22 0 -8 5 -14 10 -14 6 0 16 -4 23 -8 6 -5 17 -5 24 -1 6 4 8 3 5
-2 -3 -5 3 -21 14 -34 12 -15 17 -18 13 -7 -3 9 -1 17 5 17 6 0 11 -9 11 -20
0 -14 6 -20 17 -18 14 3 17 -7 18 -67 0 -38 4 -76 9 -84 6 -9 5 -12 -1 -8 -6
4 -10 -11 -10 -38 0 -34 3 -43 12 -35 17 14 27 0 12 -18 -10 -13 -9 -14 10 -4
30 17 41 15 17 -3 -18 -14 -17 -14 13 -11 21 2 34 -2 38 -11 4 -11 1 -13 -10
-9 -9 3 -13 2 -10 -4 3 -6 17 -10 30 -10 15 0 26 -7 30 -21 6 -17 9 -19 16 -8
5 8 3 17 -4 22 -8 6 -8 7 3 4 8 -2 15 -10 16 -18 2 -30 5 -33 14 -19 8 13 11
11 16 -8 4 -12 11 -22 18 -21 29 4 46 -2 46 -16 0 -9 9 -15 25 -15 14 0 30 -9
37 -20 7 -11 21 -20 30 -20 12 0 18 -8 18 -21 0 -11 5 -17 10 -14 6 4 7 12 3
18 -4 7 1 5 11 -3 10 -8 26 -15 35 -15 9 0 15 -5 14 -12 -1 -6 4 -14 13 -17 8
-3 13 -2 10 3 -4 5 5 4 18 -2 14 -7 24 -16 23 -22 -1 -5 10 -11 25 -13 17 -2
30 -11 34 -24 5 -16 8 -18 15 -7 5 8 9 9 9 3 0 -18 44 -11 52 9 4 10 12 15 18
12 5 -3 10 -2 10 3 0 6 10 8 22 4 14 -3 19 -2 14 6 -7 11 7 17 29 12 5 -1 7 1
3 5 -14 14 31 47 66 48 19 1 32 5 30 9 -3 5 -11 5 -17 2 -7 -4 -9 -3 -4 1 4 5
16 10 27 12 11 2 30 5 43 6 12 2 22 10 22 18 0 8 12 15 28 17 23 3 26 6 16 18
-14 17 2 19 20 2 11 -10 13 -10 7 0 -7 12 4 16 34 12 10 -1 9 3 -5 14 -22 17
-23 17 23 20 18 1 38 8 45 15 9 10 8 11 -5 6 -11 -4 -18 -2 -18 4 0 6 16 11
36 11 19 0 33 4 30 9 -7 10 20 24 48 25 23 1 33 27 30 80 -2 24 1 35 6 26 4
-7 6 -23 4 -36 -2 -12 0 -25 4 -28 5 -3 9 41 10 99 1 81 -2 104 -14 109 -8 3
-14 11 -13 18 0 10 2 10 6 1 7 -20 19 -15 20 7 1 11 -2 18 -7 15 -4 -3 -10 2
-13 10 -4 9 -1 12 9 8 10 -4 14 2 14 22 0 18 -4 24 -12 19 -10 -6 -10 -5 -1 7
13 16 12 44 -2 56 -4 4 -5 2 0 -6 5 -9 4 -12 -3 -7 -6 4 -9 13 -6 21 4 8 11
12 17 8 6 -4 7 -1 2 7 -6 10 -13 8 -28 -11 l-20 -24 8 24 c5 16 4 21 -4 17 -6
-4 -11 -13 -11 -19 0 -7 -12 -14 -27 -15 -14 -1 -34 -9 -43 -17 -9 -8 -27 -16
-41 -19 -13 -2 -23 -9 -22 -15 2 -6 -9 -14 -24 -17 -24 -7 -25 -8 -8 -14 17
-6 15 -8 -12 -14 -29 -7 -37 -15 -35 -36 0 -3 -11 -6 -26 -5 -18 0 -26 -5 -24
-14 3 -12 1 -12 -13 -1 -14 11 -16 11 -13 -1 2 -9 -4 -13 -16 -11 -10 2 -16 0
-13 -5 3 -5 -10 -8 -29 -7 -18 1 -33 -1 -32 -5 2 -21 -4 -32 -19 -29 -10 2
-18 -3 -18 -12 0 -8 -8 -14 -18 -14 -16 2 -22 -8 -18 -29 1 -5 -3 -6 -9 -2 -6
3 -8 11 -5 16 4 5 1 9 -4 9 -6 0 -11 -6 -11 -14 0 -17 -16 -23 -52 -21 -16 1
-28 -2 -28 -8 0 -5 7 -7 15 -4 8 4 17 2 20 -3 11 -17 -47 -11 -60 6 -6 9 -25
17 -41 17 -16 0 -23 2 -16 4 6 3 12 9 12 14 0 6 -4 8 -9 4 -5 -3 -17 2 -25 11
-12 12 -16 12 -17 2 0 -7 -4 -4 -8 6 -7 19 -23 25 -73 28 -17 0 -30 8 -33 19
-4 11 -13 16 -26 14 -14 -3 -19 1 -17 13 2 9 -1 17 -7 17 -17 1 -36 16 -30 25
3 4 -1 8 -8 7 -36 -1 -58 4 -52 12 7 13 -33 34 -51 27 -9 -4 -14 2 -14 16 0
21 0 21 -15 2 -13 -16 -14 -16 -9 -1 3 9 1 18 -5 18 -6 1 -17 2 -23 3 -7 0
-13 8 -13 16 0 8 -8 14 -17 12 -9 -1 -18 5 -20 15 -2 10 -10 18 -18 19 -8 1
-30 2 -48 2 -20 1 -31 6 -27 12 4 6 12 7 18 4 7 -4 8 -3 4 2 -5 5 -13 10 -18
10 -5 1 -12 3 -16 4 -5 1 -15 3 -23 4 -8 0 -14 7 -13 14 3 11 -15 17 -44 13
-7 -1 -13 7 -13 19 0 13 -7 20 -19 20 -10 0 -22 7 -25 16 -3 8 -10 12 -16 9
-5 -3 -10 -1 -10 5 0 6 -4 9 -9 5 -5 -3 -17 2 -26 11 -8 9 -27 17 -40 18 -23
1 -29 8 -26 29 1 7 -30 11 -59 7 -11 -1 -9 3 5 15 19 16 19 16 -8 10 -19 -4
-26 -2 -22 5 3 6 -3 10 -15 10 -16 0 -20 5 -16 15 3 9 0 15 -9 15 -8 0 -15 8
-16 18 -4 74 -3 141 3 164 3 15 2 30 -3 34 -6 3 -6 12 0 22 6 10 5 24 -1 37
-10 18 -10 19 6 6 14 -12 16 -12 10 4 -6 14 -4 16 6 10 9 -5 11 -4 6 4 -4 6
-12 9 -17 6 -5 -4 -9 -1 -10 4 -3 38 -2 69 4 84 4 10 1 17 -6 18 -9 0 -9 2 0
6 9 3 10 10 3 23 -6 11 -6 21 -1 24 5 3 7 15 4 26 -5 19 10 27 41 21 5 -1 4 4
-3 13 -8 10 -9 16 -1 21 5 3 10 0 10 -7 0 -10 2 -10 9 0 4 8 11 13 15 13 20
-3 26 1 26 14 0 10 10 15 33 15 25 0 37 6 46 23 6 12 9 14 7 5 -3 -10 -1 -20
5 -23 5 -4 9 -3 8 2 -3 17 1 33 9 32 18 -3 46 3 35 8 -23 9 -13 23 16 23 30 0
56 21 43 35 -4 5 -2 5 5 1 6 -3 14 -2 18 4 3 5 12 10 18 10 7 0 6 -4 -3 -10
-8 -5 -10 -10 -4 -10 6 0 18 8 25 17 8 10 9 14 2 10 -6 -4 -14 -4 -17 1 -3 5
0 9 7 10 26 2 47 9 54 17 4 4 3 5 -4 1 -6 -3 -15 -2 -18 4 -4 6 -3 10 2 9 22
-4 63 2 62 9 -3 20 2 33 11 27 6 -4 7 -11 4 -17 -4 -7 -2 -8 5 -4 6 4 8 12 5
18 -5 7 -1 9 9 5 9 -3 19 -2 22 3 3 5 13 7 23 4 14 -5 13 -2 -3 12 -17 14 -17
16 -2 11 9 -4 17 -2 17 2 0 5 9 7 20 4 19 -5 26 5 21 31 -1 5 5 4 13 -4 13
-10 16 -10 16 3 0 11 6 13 23 9 18 -5 20 -3 10 9 -10 12 -8 15 9 16 11 1 26
10 34 20 13 16 14 17 8 1 -3 -10 -1 -18 5 -18 6 0 11 7 11 15 0 8 5 16 10 16
6 1 16 2 23 3 6 1 11 7 10 13 -2 10 42 28 59 25 4 -1 5 5 2 13 -5 11 1 15 21
15 16 0 24 4 19 11 -4 8 0 8 15 0 14 -8 21 -8 21 -1 0 5 -6 10 -12 10 -9 0 -8
3 2 10 9 6 17 5 21 -2 4 -7 9 -7 13 1 4 6 16 11 26 11 10 0 22 5 26 12 4 7 3
8 -4 4 -7 -4 -12 -2 -12 3 0 6 9 11 20 11 11 0 20 5 20 10 0 6 5 10 11 10 5 0
7 -5 3 -12 -4 -7 -3 -8 5 -4 8 6 9 12 2 20 -8 10 -4 12 17 11 16 -1 34 -5 42
-10z m44 -1 c3 -8 2 -12 -4 -9 -6 3 -10 10 -10 16 0 14 7 11 14 -7z m-1911
-189 c-3 -9 -8 -14 -10 -11 -3 3 -2 9 2 15 9 16 15 13 8 -4z m-23 -375 c0 -5
-5 -10 -11 -10 -5 0 -7 5 -4 10 3 6 8 10 11 10 2 0 4 -4 4 -10z m2057 -72 c-3
-8 -6 -5 -6 6 -1 11 2 17 5 13 3 -3 4 -12 1 -19z m73 -28 c0 -5 -2 -10 -4 -10
-3 0 -8 5 -11 10 -3 6 -1 10 4 10 6 0 11 -4 11 -10z m791 -93 c-10 -9 -11 -8
-5 6 3 10 9 15 12 12 3 -3 0 -11 -7 -18z m-2931 -148 c0 -10 -3 -19 -7 -19 -5
0 -8 11 -8 24 0 13 3 22 8 19 4 -2 7 -13 7 -24z m2940 21 c0 -5 -2 -10 -4 -10
-3 0 -8 5 -11 10 -3 6 -1 10 4 10 6 0 11 -4 11 -10z m-1223 -175 c0 -8 -4 -12
-9 -9 -4 3 -8 9 -8 15 0 5 4 9 8 9 5 0 9 -7 9 -15z m-1710 -50 c0 -20 -4 -19
-17 5 -8 15 -8 18 3 14 8 -3 14 -11 14 -19z m833 5 c0 -5 -2 -10 -4 -10 -3 0
-8 5 -11 10 -3 6 -1 10 4 10 6 0 11 -4 11 -10z m1105 -19 c3 -5 2 -12 -3 -15
-5 -3 -9 1 -9 9 0 17 3 19 12 6z m-1941 -26 c-4 -8 -10 -15 -15 -15 -4 0 -6 7
-3 15 4 8 10 15 15 15 4 0 6 -7 3 -15z m2940 -173 c3 -5 -1 -9 -9 -9 -8 0 -12
4 -9 9 3 4 7 8 9 8 2 0 6 -4 9 -8z m-2938 -236 c-1 -24 -5 -42 -9 -39 -5 3 -6
11 -3 19 3 8 0 14 -7 15 -9 0 -9 2 1 6 6 2 12 9 12 14 0 6 -6 7 -12 3 -9 -5
-9 -2 1 9 7 9 14 17 15 17 2 0 2 -20 2 -44z m2089 -26 c-3 -5 -11 -10 -16 -10
-6 0 -7 5 -4 10 3 6 11 10 16 10 6 0 7 -4 4 -10z m389 -36 c3 -8 2 -12 -4 -9
-6 3 -10 10 -10 16 0 14 7 11 14 -7z m-2480 -9 c-4 -8 -10 -15 -15 -15 -4 0
-6 7 -3 15 4 8 10 15 15 15 4 0 6 -7 3 -15z m2454 -160 c-3 -3 -9 2 -12 12 -6
14 -5 15 5 6 7 -7 10 -15 7 -18z m-2458 -76 c0 -10 -3 -19 -7 -19 -5 0 -8 11
-8 24 0 13 3 22 8 19 4 -2 7 -13 7 -24z m10 -139 c0 -5 -5 -10 -11 -10 -5 0
-7 5 -4 10 3 6 8 10 11 10 2 0 4 -4 4 -10z m-6 -77 c-1 -16 -3 -31 -3 -35 -1
-5 -6 -8 -12 -8 -8 0 -8 4 0 14 9 10 9 16 1 21 -8 5 -8 11 1 21 15 18 15 18
13 -13z m1216 -194 c0 -6 -4 -7 -10 -4 -5 3 -10 11 -10 16 0 6 5 7 10 4 6 -3
10 -11 10 -16z m687 -373 c2 -2 -9 -3 -26 -2 -16 0 -27 4 -25 8 4 7 43 3 51
-6z m1677 -158 c-3 -4 -9 -8 -15 -8 -5 0 -9 4 -9 8 0 5 7 9 15 9 8 0 12 -4 9
-9z m-3344 -32 c0 -3 -4 -8 -10 -11 -5 -3 -10 -1 -10 4 0 6 5 11 10 11 6 0 10
-2 10 -4z m3280 -30 c0 -2 -7 -7 -16 -10 -8 -3 -12 -2 -9 4 6 10 25 14 25 6z
m-280 -200 c0 -3 -4 -8 -10 -11 -5 -3 -10 -1 -10 4 0 6 5 11 10 11 6 0 10 -2
10 -4z"/>
<path d="M2290 3161 c0 -6 4 -13 10 -16 6 -3 7 1 4 9 -7 18 -14 21 -14 7z"/>
<path d="M2402 3086 c7 -8 15 -12 17 -11 5 6 -10 25 -20 25 -5 0 -4 -6 3 -14z"/>
<path d="M1070 2779 c0 -5 5 -7 10 -4 6 3 10 8 10 11 0 2 -4 4 -10 4 -5 0 -10
-5 -10 -11z"/>
<path d="M2595 2690 c4 -6 11 -8 16 -5 14 9 11 15 -7 15 -8 0 -12 -5 -9 -10z"/>
<path d="M2957 2679 c7 -7 15 -10 18 -7 3 3 -2 9 -12 12 -14 6 -15 5 -6 -5z"/>
<path d="M966 2602 c-3 -5 1 -9 9 -9 8 0 12 4 9 9 -3 4 -7 8 -9 8 -2 0 -6 -4
-9 -8z"/>
<path d="M974 2360 c0 -13 4 -16 10 -10 7 7 7 13 0 20 -6 6 -10 3 -10 -10z"/>
<path d="M2310 2300 c0 -5 5 -10 11 -10 5 0 7 5 4 10 -3 6 -8 10 -11 10 -2 0
-4 -4 -4 -10z"/>
<path d="M973 2281 c0 -11 5 -18 9 -15 4 3 5 11 1 19 -7 21 -12 19 -10 -4z"/>
<path d="M976 1915 c-9 -26 -7 -32 5 -12 6 10 9 21 6 23 -2 3 -7 -2 -11 -11z"/>
<path d="M1516 1902 c-3 -5 1 -9 9 -9 8 0 15 4 15 9 0 4 -4 8 -9 8 -6 0 -12
-4 -15 -8z"/>
<path d="M1241 1861 c-8 -5 -9 -11 -3 -15 5 -3 12 1 16 9 6 17 6 18 -13 6z"/>
<path d="M1786 1729 c4 -8 30 -6 38 2 3 3 -5 5 -19 5 -13 0 -22 -3 -19 -7z"/>
<path d="M970 1699 c0 -5 5 -7 10 -4 6 3 10 8 10 11 0 2 -4 4 -10 4 -5 0 -10
-5 -10 -11z"/>
<path d="M1710 1346 c0 -9 5 -16 10 -16 6 0 10 4 10 9 0 6 -4 13 -10 16 -5 3
-10 -1 -10 -9z"/>
<path d="M2170 1281 c0 -6 4 -12 8 -15 5 -3 9 1 9 9 0 8 -4 15 -9 15 -4 0 -8
-4 -8 -9z"/>
<path d="M1953 1205 c0 -8 4 -12 9 -9 5 3 6 10 3 15 -9 13 -12 11 -12 -6z"/>
<path d="M2495 940 c3 -5 8 -10 11 -10 2 0 4 5 4 10 0 6 -5 10 -11 10 -5 0 -7
-4 -4 -10z"/>
<path d="M3707 3479 c7 -7 15 -10 18 -7 3 3 -2 9 -12 12 -14 6 -15 5 -6 -5z"/>
<path d="M3775 3400 c-3 -5 -1 -10 4 -10 6 0 11 5 11 10 0 6 -2 10 -4 10 -3 0
-8 -4 -11 -10z"/>
<path d="M106 2932 c-3 -5 1 -9 9 -9 8 0 12 4 9 9 -3 4 -7 8 -9 8 -2 0 -6 -4
-9 -8z"/>
<path d="M106 2352 c-3 -5 1 -9 9 -9 8 0 12 4 9 9 -3 4 -7 8 -9 8 -2 0 -6 -4
-9 -8z"/>
<path d="M100 1939 c0 -5 5 -7 10 -4 6 3 10 8 10 11 0 2 -4 4 -10 4 -5 0 -10
-5 -10 -11z"/>
<path d="M104 1009 c-3 -6 -1 -16 5 -22 9 -9 10 -7 5 7 -6 15 -4 17 6 11 9 -5
11 -4 6 3 -9 15 -13 15 -22 1z"/>
<path d="M3886 873 c-6 -14 -5 -15 5 -6 7 7 10 15 7 18 -3 3 -9 -2 -12 -12z"/>
<path d="M3775 590 c3 -5 8 -10 11 -10 2 0 4 5 4 10 0 6 -5 10 -11 10 -5 0 -7
-4 -4 -10z"/>
<path d="M3670 460 c0 -5 5 -10 11 -10 5 0 7 5 4 10 -3 6 -8 10 -11 10 -2 0
-4 -4 -4 -10z"/>
<path d="M3535 320 c-3 -5 -1 -10 4 -10 6 0 11 5 11 10 0 6 -2 10 -4 10 -3 0
-8 -4 -11 -10z"/>
</g>
</svg>
